<?xml version="1.0" ?><svg xmlns="http://www.w3.org/2000/svg" width="65.334152mm" height="93.867889mm" viewBox="0 0 65.334152 93.867889">
    <path d="m 3332.1344,409.19425 129.3831,-152.26431 106.2214,144.3142 -51.4948,13.76729 -5.2853,227.19331 -99.6498,-7.95011 3.163,-209.0058 c 0,0 -85.0631,2.45451 -82.3376,-16.05458 z" fill="#FFFFFF" transform="translate(245.3493,-168.2652) matrix(0.2266592,0,0,0.2266592,-995.38515,112.94176)"/>
    <path d="m 3455.4336,244.0957 c -4.916,0.27043 -10.0851,4.59678 -19.2129,15.14649 -28.0391,32.40717 -111.1557,122.67648 -120.125,140.25781 -8.6792,17.01164 -9.9468,18.20607 -0.088,34.33203 6.6995,10.95829 29.6644,7.83129 55.2207,5.83399 32.1584,-2.51327 35.8949,-1.6538 34.2617,21.07031 -4.9904,69.4359 -5.2219,123.80521 -6.2469,166.56274 -10.2952,40.88309 54.2985,28.22558 75.4247,28.69898 16.874,0.40377 26.3918,0.79528 32.8945,2.2207 10.3049,-0.56633 14.8866,-6.54279 17.8418,-21.10547 2.7281,-16.29856 5.1723,-23.14187 5.4727,-56.32226 -3.6763,-47.34869 -5.0235,-87.84051 -1.6524,-134.64844 2.2654,-31.45542 16.6329,-24.04565 43.8281,-26.05078 15.8969,-0.71526 28.2505,-7.59079 23.1016,-23.78321 -2.8734,-9.03633 -10.4974,-15.12004 -17.9043,-25.47265 -66.3901,-92.79216 -89.6235,-120.96637 -100.2363,-121.54492 -4.8827,-0.2664 -12.8086,-2.15433 -17.6114,-4.19532 -1.7197,-0.73087 -3.33,-1.09014 -4.9687,-1 z m 5.3184,26.13282 c 1.0697,0.12902 1.5613,1.3195 1.5761,3.45507 0.013,1.87842 18.2593,28.00585 40.5469,58.06055 22.2876,30.0547 39.5743,56.18017 38.4141,58.05859 -1.1597,1.87842 -8.7689,3.41602 -16.9082,3.41602 -8.1397,0 -18.2634,2.56094 -22.4981,5.69141 -9.7543,7.21244 2.8862,48.66738 -1.4297,150.27343 2.3562,74.56738 3.6161,75.9736 -24.2187,75.50977 -11.5373,-0.42109 -28.6284,-1.56669 -37.9805,-2.54688 -16.2565,-1.70355 -16.7277,-2.22126 -10.7168,-11.75781 8.8956,-14.11274 8.1573,-136.82923 6.5293,-174.38086 -1.3249,-22.32488 5.7562,-31.51353 -17.3008,-31.16601 -8.7661,0.13113 -26.2583,2.12177 -40.289,1.85547 -28.6485,-0.54375 -25.1051,0.40733 29.4355,-68.86915 37.0343,-47.04028 50.2044,-68.15869 54.8399,-67.5996 z" fill="#000000" transform="translate(245.3493,-168.2652) matrix(0.2266592,0,0,0.2266592,-995.38515,112.94176)"/>
</svg>